<svg xmlns="http://www.w3.org/2000/svg" width="690" height="647" viewBox="0 0 690 647" version="1.1"><path d="M 564.827 144.644 C 557.307 155.565, 546.443 171.250, 540.685 179.500 C 527.630 198.207, 524.958 202.086, 497.982 241.500 C 485.936 259.100, 471.404 280.250, 465.688 288.500 C 455.188 303.656, 428.245 343.196, 402.516 381.207 C 394.807 392.596, 384.003 408.487, 378.508 416.520 L 368.515 431.127 359.510 421.314 C 354.557 415.916, 344.428 405.188, 337.002 397.474 C 329.576 389.759, 319.649 379.184, 314.942 373.974 C 298.480 355.751, 263.699 317.491, 262.694 316.500 C 261.404 315.228, 264.847 321.033, 272.184 332.500 C 275.351 337.450, 279.833 344.741, 282.143 348.703 C 284.454 352.664, 286.728 355.668, 287.197 355.378 C 287.666 355.088, 287.949 355.222, 287.827 355.676 C 287.308 357.594, 289.261 361.034, 290.722 360.776 C 291.586 360.624, 292.486 361.175, 292.722 362 C 293.104 363.333, 293.034 363.333, 292.091 362 C 291.164 360.688, 291.029 360.704, 291.015 362.128 C 290.996 364.203, 293.640 366.579, 294.177 364.968 C 294.382 364.355, 295.596 365.716, 296.875 367.992 C 298.155 370.269, 298.965 372.369, 298.675 372.659 C 298.385 372.949, 297.428 371.794, 296.548 370.093 C 295.668 368.392, 294.724 367, 294.449 367 C 293.840 367, 296.309 371.781, 298.271 374.401 C 299.379 375.881, 299.874 376.013, 300.502 374.997 C 301.035 374.134, 300.918 373.933, 300.155 374.405 C 299.520 374.797, 299 374.641, 299 374.059 C 299 372.127, 300.746 372.962, 302.534 375.750 C 303.504 377.262, 307.380 382.645, 311.149 387.711 C 314.917 392.778, 317.982 397.728, 317.961 398.711 C 317.938 399.751, 317.304 399.076, 316.446 397.099 C 315.634 395.228, 314.715 393.952, 314.404 394.263 C 314.093 394.574, 314.361 395.806, 315 397 C 315.639 398.194, 315.959 399.374, 315.712 399.621 C 315.464 399.869, 314.507 398.480, 313.584 396.536 C 312.661 394.591, 311.429 393, 310.846 393 C 310.249 393, 310.077 392.235, 310.452 391.250 C 311.003 389.804, 310.891 389.729, 309.809 390.817 C 308.730 391.903, 308.781 392.342, 310.099 393.317 C 310.979 393.968, 311.757 394.842, 311.829 395.260 C 312.208 397.471, 315.383 402.320, 315.747 401.244 C 315.980 400.553, 316.604 400.255, 317.134 400.583 C 317.727 400.949, 317.647 401.721, 316.926 402.589 C 316.084 403.603, 316.071 404, 316.878 404 C 317.495 404, 318.056 403.550, 318.125 403 C 318.194 402.450, 318.306 401.550, 318.375 401 C 318.444 400.450, 318.875 399.971, 319.334 399.936 C 320.045 399.881, 327.076 408.585, 332.009 415.628 C 332.829 416.799, 336.830 422.199, 340.899 427.628 C 344.969 433.058, 349.381 438.965, 350.705 440.756 C 352.028 442.547, 352.791 444.529, 352.401 445.160 C 351.941 445.905, 352.135 446.035, 352.953 445.529 C 353.900 444.944, 354.027 445.339, 353.463 447.117 C 352.767 449.309, 352.846 449.374, 354.522 447.992 C 356.208 446.602, 356.285 446.688, 355.647 449.250 C 355.236 450.899, 355.370 452, 355.981 452 C 356.541 452, 357 451.475, 357 450.833 C 357 450.192, 357.274 449.941, 357.609 450.276 C 357.944 450.611, 357.241 452.258, 356.046 453.935 C 354.429 456.207, 354.273 456.832, 355.437 456.386 C 356.297 456.056, 357 455.358, 357 454.834 C 357 454.310, 357.416 454.139, 357.924 454.453 C 358.433 454.767, 359.013 454.231, 359.215 453.262 C 359.515 451.818, 359.692 451.906, 360.197 453.751 C 360.539 455, 360.410 455.753, 359.907 455.442 C 359.408 455.134, 359 455.332, 359 455.882 C 359 456.432, 359.457 457.164, 360.015 457.509 C 360.876 458.041, 363.822 464.028, 363.957 465.518 C 363.980 465.783, 364.788 466.789, 365.750 467.754 C 366.712 468.719, 370.875 477.263, 375 486.740 C 379.125 496.217, 382.727 503.978, 383.004 503.986 C 383.281 503.994, 386.021 499.838, 389.092 494.750 C 392.164 489.663, 398.407 479.425, 402.967 472 C 407.526 464.575, 419.577 444.775, 429.747 428 C 439.917 411.225, 450.046 394.601, 452.256 391.058 C 456.590 384.108, 496.369 318.451, 503.910 305.800 L 508.500 298.100 518.500 297.800 L 528.500 297.500 537.764 273 C 542.860 259.525, 549.606 241.822, 552.757 233.661 L 558.485 218.821 559.865 222.161 C 560.624 223.997, 565.864 237.907, 571.509 253.072 C 577.154 268.237, 583.287 284.437, 585.137 289.072 L 588.500 297.500 606.750 297.773 C 617.736 297.937, 625 297.669, 625 297.100 C 625 296.580, 620.922 285.432, 615.937 272.327 C 610.952 259.222, 601.216 233.200, 594.302 214.500 C 580.169 176.281, 581.052 180.581, 579.248 141.144 L 578.500 124.788 564.827 144.644 M 205.405 168.485 C 179.311 174.162, 160.628 193.728, 155.412 220.838 C 152.641 235.240, 154.482 248.320, 161.198 261.938 C 169.321 278.413, 186.860 292.407, 204.624 296.589 C 213.938 298.782, 232.100 298.044, 240.275 295.141 C 254.463 290.103, 265.674 281.663, 274.084 269.687 L 279 262.686 279 233.471 L 279 204.257 274.181 196.878 C 259.160 173.883, 232.046 162.689, 205.405 168.485 M 78 233.023 L 78 298.046 95.750 297.773 L 113.500 297.500 113.757 232.750 L 114.015 168 96.007 168 L 78 168 78 233.023 M 285 233 L 285 298 303 298 L 321 298 321 233 L 321 168 303 168 L 285 168 285 233 M 323 184 L 323 200 331.750 200.006 C 342.528 200.012, 347.581 201.340, 351.078 205.083 C 356.465 210.850, 355.559 220.946, 349.222 225.780 C 346.119 228.146, 344.796 228.417, 334.408 228.815 L 323 229.252 323.032 242.376 L 323.063 255.500 336.349 276.500 L 349.634 297.500 370.317 297.770 C 381.693 297.919, 391 297.792, 391 297.489 C 391 297.185, 384.925 287.564, 377.500 276.109 C 370.075 264.654, 364 254.851, 364 254.326 C 364 253.800, 365.672 252.573, 367.715 251.599 C 387.579 242.126, 395.814 214.749, 385.546 192.321 C 382.469 185.598, 373.936 176.508, 367.769 173.383 C 359.530 169.208, 352.691 168, 337.290 168 L 323 168 323 184 M 395.266 232.750 L 395.500 297.500 413.500 297.500 L 431.500 297.500 431.757 232.750 L 432.015 168 413.523 168 L 395.032 168 395.266 232.750 M 476 213.200 C 476 238.292, 476.380 257.977, 476.855 257.450 C 477.325 256.928, 485.425 245.402, 494.855 231.838 L 512 207.176 512 187.588 L 512 168 494 168 L 476 168 476 213.200 M 593.315 170.007 C 586.330 172.822, 588.792 184, 596.398 184 C 603.334 184, 606.691 175.262, 601.365 171.073 C 598.539 168.850, 596.769 168.615, 593.315 170.007 M 592.699 172.780 C 590.125 175.624, 590.541 179.653, 593.615 181.667 C 595.936 183.188, 596.515 183.219, 598.761 181.941 C 602.032 180.078, 603.154 176.945, 601.641 173.895 C 600.090 170.764, 595.087 170.141, 592.699 172.780 M 433.971 172.691 C 433.956 173.136, 433.968 186.453, 433.999 202.285 L 434.056 231.071 438.846 237.785 C 441.480 241.478, 448.225 251.363, 453.834 259.750 C 459.443 268.137, 464.362 274.991, 464.766 274.979 C 465.170 274.968, 467.413 272.047, 469.750 268.489 L 474 262.019 474 245.907 L 474 229.795 459.659 209.148 C 451.771 197.791, 442.771 184.761, 439.659 180.191 C 436.546 175.620, 433.987 172.245, 433.971 172.691 M 593.713 173.621 C 592.642 174.691, 592.856 179.793, 594 180.500 C 594.550 180.840, 595 180.416, 595 179.559 C 595 177.813, 596.552 177.466, 597.500 179 C 598.679 180.907, 599.500 179.984, 599.500 176.750 C 599.500 174.015, 599.098 173.453, 596.963 173.204 C 595.567 173.041, 594.104 173.229, 593.713 173.621 M 209.316 204.326 C 202.395 206.878, 197.346 211.552, 193.861 218.632 C 190.934 224.582, 190.503 226.437, 190.525 233.012 C 190.557 242.422, 193.891 249.974, 200.636 255.910 C 212.023 265.934, 229.863 265.250, 240.414 254.386 C 246.452 248.168, 248.501 242.742, 248.490 233 C 248.479 223.423, 246.604 218.035, 241.100 211.766 C 235.890 205.833, 228.996 202.986, 220.054 203.076 C 215.899 203.118, 211.067 203.680, 209.316 204.326 M 549.151 247.750 C 546.066 255.521, 539 275.218, 539 276.047 C 539 276.618, 546.809 277, 558.500 277 C 569.225 277, 578 276.669, 578 276.265 C 578 275.861, 575.435 268.661, 572.300 260.265 L 566.601 245 558.422 245 C 550.430 245, 550.218 245.063, 549.151 247.750 M 116 280.500 L 116 298 151.500 298 C 171.025 298, 187 297.801, 187 297.559 C 187 297.316, 184.188 295.628, 180.750 293.809 C 171.811 289.077, 162.291 279.203, 158.034 270.250 L 154.587 263 135.293 263 L 116 263 116 280.500 M 232.387 322.637 C 222.549 334.538, 210.738 348.825, 206.140 354.387 C 201.542 359.949, 197.616 364.676, 197.416 364.891 C 196.907 365.436, 189.951 359.636, 177.003 347.870 C 170.935 342.355, 165.562 337.991, 165.064 338.172 C 164.043 338.542, 110.613 400.814, 91 424.493 C 87.695 428.483, 71.719 447.496, 65.448 454.901 C 62.649 458.207, 62.637 458.265, 65.034 457.003 C 75.806 451.333, 111.483 431.582, 149.341 410.331 C 157.504 405.749, 164.524 402, 164.941 402 C 165.864 402, 173.011 410.277, 182.980 422.891 L 190.402 432.282 192.951 429.295 C 194.353 427.653, 202.925 418.063, 212 407.985 C 221.075 397.907, 231.599 386.149, 235.387 381.856 C 239.174 377.563, 242.606 374.256, 243.012 374.508 C 243.419 374.759, 256.970 391.058, 273.126 410.728 C 289.282 430.398, 305.668 450.128, 309.541 454.573 C 313.413 459.018, 317.578 463.970, 318.796 465.577 L 321.011 468.500 318.897 463.500 C 317.735 460.750, 314.545 453.325, 311.808 447 C 304.164 429.329, 278.760 368.109, 264.398 332.750 C 257.306 315.288, 251.227 301, 250.889 301 C 250.551 301, 242.225 310.737, 232.387 322.637 M 305.647 384.763 C 305.388 385.182, 305.698 386.486, 306.338 387.660 C 307.300 389.428, 307.713 389.564, 308.740 388.451 C 309.521 387.604, 309.613 386.879, 308.990 386.494 C 308.446 386.157, 307.993 386.471, 307.985 387.191 C 307.973 388.155, 307.724 388.112, 307.037 387.026 C 306.423 386.055, 306.513 385.294, 307.303 384.792 C 308.224 384.206, 308.225 384.027, 307.309 384.015 C 306.654 384.007, 305.906 384.343, 305.647 384.763 M 318.647 406.762 C 318.377 407.198, 319.051 408.668, 320.145 410.028 C 321.752 412.025, 321.936 412.093, 321.102 410.381 C 320.535 409.216, 320.309 408.024, 320.602 407.732 C 320.894 407.439, 320.684 406.923, 320.136 406.584 C 319.587 406.245, 318.917 406.325, 318.647 406.762 M 350.446 450.087 C 350.077 450.685, 350.275 451.675, 350.887 452.287 C 352.234 453.634, 352.372 455.348, 351.069 454.543 C 349.564 453.613, 348.656 456.065, 350.034 457.337 C 351.018 458.245, 351.164 458.127, 350.698 456.801 C 350.296 455.654, 350.531 455.266, 351.422 455.608 C 352.859 456.160, 354.359 453.390, 353.434 451.893 C 353.119 451.384, 352.366 451.274, 351.761 451.648 C 351.053 452.086, 350.888 451.735, 351.299 450.664 C 352.017 448.793, 351.473 448.426, 350.446 450.087 M 357.418 458.332 C 357.738 459.339, 358.007 461.139, 358.015 462.332 C 358.037 465.406, 359.537 467.391, 361.321 466.707 C 362.310 466.328, 362.648 465.369, 362.284 463.977 C 361.877 462.421, 361.504 462.185, 360.927 463.118 C 360.490 463.825, 360.399 464.876, 360.726 465.452 C 361.053 466.029, 360.937 466.151, 360.468 465.724 C 359.205 464.576, 358.856 461, 360.006 461 C 360.553 461, 361 460.475, 361 459.833 C 361 459.192, 360.707 458.960, 360.349 459.318 C 359.991 459.676, 359.054 459.188, 358.267 458.234 C 356.920 456.601, 356.871 456.606, 357.418 458.332" stroke="none" fill="#3e2e2b" fill-rule="evenodd"/><path d="M 0 323.501 L 0 647.003 345.250 646.751 L 690.500 646.500 690.752 323.250 L 691.003 0 345.502 0 L 0 0 0 323.501 M 0.494 324 C 0.494 501.925, 0.609 574.713, 0.750 485.750 C 0.891 396.788, 0.891 251.213, 0.750 162.250 C 0.609 73.288, 0.494 146.075, 0.494 324 M 564.827 144.644 C 557.307 155.565, 546.443 171.250, 540.685 179.500 C 527.630 198.207, 524.958 202.086, 497.982 241.500 C 485.936 259.100, 471.404 280.250, 465.688 288.500 C 455.188 303.656, 428.245 343.196, 402.516 381.207 C 394.807 392.596, 384.003 408.487, 378.508 416.520 L 368.515 431.127 359.510 421.314 C 354.557 415.916, 344.428 405.188, 337.002 397.474 C 329.576 389.759, 319.649 379.184, 314.942 373.974 C 298.480 355.751, 263.699 317.491, 262.694 316.500 C 261.404 315.228, 264.847 321.033, 272.184 332.500 C 275.351 337.450, 279.833 344.741, 282.143 348.703 C 284.454 352.664, 286.728 355.668, 287.197 355.378 C 287.666 355.088, 287.949 355.222, 287.827 355.676 C 287.308 357.594, 289.261 361.034, 290.722 360.776 C 291.586 360.624, 292.486 361.175, 292.722 362 C 293.104 363.333, 293.034 363.333, 292.091 362 C 291.164 360.688, 291.029 360.704, 291.015 362.128 C 290.996 364.203, 293.640 366.579, 294.177 364.968 C 294.382 364.355, 295.596 365.716, 296.875 367.992 C 298.155 370.269, 298.965 372.369, 298.675 372.659 C 298.385 372.949, 297.428 371.794, 296.548 370.093 C 295.668 368.392, 294.724 367, 294.449 367 C 293.840 367, 296.309 371.781, 298.271 374.401 C 299.379 375.881, 299.874 376.013, 300.502 374.997 C 301.035 374.134, 300.918 373.933, 300.155 374.405 C 299.520 374.797, 299 374.641, 299 374.059 C 299 372.127, 300.746 372.962, 302.534 375.750 C 303.504 377.262, 307.380 382.645, 311.149 387.711 C 314.917 392.778, 317.982 397.728, 317.961 398.711 C 317.938 399.751, 317.304 399.076, 316.446 397.099 C 315.634 395.228, 314.715 393.952, 314.404 394.263 C 314.093 394.574, 314.361 395.806, 315 397 C 315.639 398.194, 315.959 399.374, 315.712 399.621 C 315.464 399.869, 314.507 398.480, 313.584 396.536 C 312.661 394.591, 311.429 393, 310.846 393 C 310.249 393, 310.077 392.235, 310.452 391.250 C 311.003 389.804, 310.891 389.729, 309.809 390.817 C 308.730 391.903, 308.781 392.342, 310.099 393.317 C 310.979 393.968, 311.757 394.842, 311.829 395.260 C 312.208 397.471, 315.383 402.320, 315.747 401.244 C 315.980 400.553, 316.604 400.255, 317.134 400.583 C 317.727 400.949, 317.647 401.721, 316.926 402.589 C 316.084 403.603, 316.071 404, 316.878 404 C 317.495 404, 318.056 403.550, 318.125 403 C 318.194 402.450, 318.306 401.550, 318.375 401 C 318.444 400.450, 318.875 399.971, 319.334 399.936 C 320.045 399.881, 327.076 408.585, 332.009 415.628 C 332.829 416.799, 336.830 422.199, 340.899 427.628 C 344.969 433.058, 349.381 438.965, 350.705 440.756 C 352.028 442.547, 352.791 444.529, 352.401 445.160 C 351.941 445.905, 352.135 446.035, 352.953 445.529 C 353.900 444.944, 354.027 445.339, 353.463 447.117 C 352.767 449.309, 352.846 449.374, 354.522 447.992 C 356.208 446.602, 356.285 446.688, 355.647 449.250 C 355.236 450.899, 355.370 452, 355.981 452 C 356.541 452, 357 451.475, 357 450.833 C 357 450.192, 357.274 449.941, 357.609 450.276 C 357.944 450.611, 357.241 452.258, 356.046 453.935 C 354.429 456.207, 354.273 456.832, 355.437 456.386 C 356.297 456.056, 357 455.358, 357 454.834 C 357 454.310, 357.416 454.139, 357.924 454.453 C 358.433 454.767, 359.013 454.231, 359.215 453.262 C 359.515 451.818, 359.692 451.906, 360.197 453.751 C 360.539 455, 360.410 455.753, 359.907 455.442 C 359.408 455.134, 359 455.332, 359 455.882 C 359 456.432, 359.457 457.164, 360.015 457.509 C 360.876 458.041, 363.822 464.028, 363.957 465.518 C 363.980 465.783, 364.788 466.789, 365.750 467.754 C 366.712 468.719, 370.875 477.263, 375 486.740 C 379.125 496.217, 382.727 503.978, 383.004 503.986 C 383.281 503.994, 386.021 499.838, 389.092 494.750 C 392.164 489.663, 398.407 479.425, 402.967 472 C 407.526 464.575, 419.577 444.775, 429.747 428 C 439.917 411.225, 450.046 394.601, 452.256 391.058 C 456.590 384.108, 496.369 318.451, 503.910 305.800 L 508.500 298.100 518.500 297.800 L 528.500 297.500 537.764 273 C 542.860 259.525, 549.606 241.822, 552.757 233.661 L 558.485 218.821 559.865 222.161 C 560.624 223.997, 565.864 237.907, 571.509 253.072 C 577.154 268.237, 583.287 284.437, 585.137 289.072 L 588.500 297.500 606.750 297.773 C 617.736 297.937, 625 297.669, 625 297.100 C 625 296.580, 620.922 285.432, 615.937 272.327 C 610.952 259.222, 601.216 233.200, 594.302 214.500 C 580.169 176.281, 581.052 180.581, 579.248 141.144 L 578.500 124.788 564.827 144.644 M 205.405 168.485 C 179.311 174.162, 160.628 193.728, 155.412 220.838 C 152.641 235.240, 154.482 248.320, 161.198 261.938 C 169.321 278.413, 186.860 292.407, 204.624 296.589 C 213.938 298.782, 232.100 298.044, 240.275 295.141 C 254.463 290.103, 265.674 281.663, 274.084 269.687 L 279 262.686 279 233.471 L 279 204.257 274.181 196.878 C 259.160 173.883, 232.046 162.689, 205.405 168.485 M 78 233.023 L 78 298.046 95.750 297.773 L 113.500 297.500 113.757 232.750 L 114.015 168 96.007 168 L 78 168 78 233.023 M 285 233 L 285 298 303 298 L 321 298 321 233 L 321 168 303 168 L 285 168 285 233 M 323 184 L 323 200 331.750 200.006 C 342.528 200.012, 347.581 201.340, 351.078 205.083 C 356.465 210.850, 355.559 220.946, 349.222 225.780 C 346.119 228.146, 344.796 228.417, 334.408 228.815 L 323 229.252 323.032 242.376 L 323.063 255.500 336.349 276.500 L 349.634 297.500 370.317 297.770 C 381.693 297.919, 391 297.792, 391 297.489 C 391 297.185, 384.925 287.564, 377.500 276.109 C 370.075 264.654, 364 254.851, 364 254.326 C 364 253.800, 365.672 252.573, 367.715 251.599 C 387.579 242.126, 395.814 214.749, 385.546 192.321 C 382.469 185.598, 373.936 176.508, 367.769 173.383 C 359.530 169.208, 352.691 168, 337.290 168 L 323 168 323 184 M 395.266 232.750 L 395.500 297.500 413.500 297.500 L 431.500 297.500 431.757 232.750 L 432.015 168 413.523 168 L 395.032 168 395.266 232.750 M 476 213.200 C 476 238.292, 476.380 257.977, 476.855 257.450 C 477.325 256.928, 485.425 245.402, 494.855 231.838 L 512 207.176 512 187.588 L 512 168 494 168 L 476 168 476 213.200 M 593.315 170.007 C 586.330 172.822, 588.792 184, 596.398 184 C 603.334 184, 606.691 175.262, 601.365 171.073 C 598.539 168.850, 596.769 168.615, 593.315 170.007 M 592.699 172.780 C 590.125 175.624, 590.541 179.653, 593.615 181.667 C 595.936 183.188, 596.515 183.219, 598.761 181.941 C 602.032 180.078, 603.154 176.945, 601.641 173.895 C 600.090 170.764, 595.087 170.141, 592.699 172.780 M 433.971 172.691 C 433.956 173.136, 433.968 186.453, 433.999 202.285 L 434.056 231.071 438.846 237.785 C 441.480 241.478, 448.225 251.363, 453.834 259.750 C 459.443 268.137, 464.362 274.991, 464.766 274.979 C 465.170 274.968, 467.413 272.047, 469.750 268.489 L 474 262.019 474 245.907 L 474 229.795 459.659 209.148 C 451.771 197.791, 442.771 184.761, 439.659 180.191 C 436.546 175.620, 433.987 172.245, 433.971 172.691 M 593.713 173.621 C 592.642 174.691, 592.856 179.793, 594 180.500 C 594.550 180.840, 595 180.416, 595 179.559 C 595 177.813, 596.552 177.466, 597.500 179 C 598.679 180.907, 599.500 179.984, 599.500 176.750 C 599.500 174.015, 599.098 173.453, 596.963 173.204 C 595.567 173.041, 594.104 173.229, 593.713 173.621 M 209.316 204.326 C 202.395 206.878, 197.346 211.552, 193.861 218.632 C 190.934 224.582, 190.503 226.437, 190.525 233.012 C 190.557 242.422, 193.891 249.974, 200.636 255.910 C 212.023 265.934, 229.863 265.250, 240.414 254.386 C 246.452 248.168, 248.501 242.742, 248.490 233 C 248.479 223.423, 246.604 218.035, 241.100 211.766 C 235.890 205.833, 228.996 202.986, 220.054 203.076 C 215.899 203.118, 211.067 203.680, 209.316 204.326 M 549.151 247.750 C 546.066 255.521, 539 275.218, 539 276.047 C 539 276.618, 546.809 277, 558.500 277 C 569.225 277, 578 276.669, 578 276.265 C 578 275.861, 575.435 268.661, 572.300 260.265 L 566.601 245 558.422 245 C 550.430 245, 550.218 245.063, 549.151 247.750 M 116 280.500 L 116 298 151.500 298 C 171.025 298, 187 297.801, 187 297.559 C 187 297.316, 184.188 295.628, 180.750 293.809 C 171.811 289.077, 162.291 279.203, 158.034 270.250 L 154.587 263 135.293 263 L 116 263 116 280.500 M 232.387 322.637 C 222.549 334.538, 210.738 348.825, 206.140 354.387 C 201.542 359.949, 197.616 364.676, 197.416 364.891 C 196.907 365.436, 189.951 359.636, 177.003 347.870 C 170.935 342.355, 165.562 337.991, 165.064 338.172 C 164.043 338.542, 110.613 400.814, 91 424.493 C 87.695 428.483, 71.719 447.496, 65.448 454.901 C 62.649 458.207, 62.637 458.265, 65.034 457.003 C 75.806 451.333, 111.483 431.582, 149.341 410.331 C 157.504 405.749, 164.524 402, 164.941 402 C 165.864 402, 173.011 410.277, 182.980 422.891 L 190.402 432.282 192.951 429.295 C 194.353 427.653, 202.925 418.063, 212 407.985 C 221.075 397.907, 231.599 386.149, 235.387 381.856 C 239.174 377.563, 242.606 374.256, 243.012 374.508 C 243.419 374.759, 256.970 391.058, 273.126 410.728 C 289.282 430.398, 305.668 450.128, 309.541 454.573 C 313.413 459.018, 317.578 463.970, 318.796 465.577 L 321.011 468.500 318.897 463.500 C 317.735 460.750, 314.545 453.325, 311.808 447 C 304.164 429.329, 278.760 368.109, 264.398 332.750 C 257.306 315.288, 251.227 301, 250.889 301 C 250.551 301, 242.225 310.737, 232.387 322.637 M 305.647 384.763 C 305.388 385.182, 305.698 386.486, 306.338 387.660 C 307.300 389.428, 307.713 389.564, 308.740 388.451 C 309.521 387.604, 309.613 386.879, 308.990 386.494 C 308.446 386.157, 307.993 386.471, 307.985 387.191 C 307.973 388.155, 307.724 388.112, 307.037 387.026 C 306.423 386.055, 306.513 385.294, 307.303 384.792 C 308.224 384.206, 308.225 384.027, 307.309 384.015 C 306.654 384.007, 305.906 384.343, 305.647 384.763 M 318.647 406.762 C 318.377 407.198, 319.051 408.668, 320.145 410.028 C 321.752 412.025, 321.936 412.093, 321.102 410.381 C 320.535 409.216, 320.309 408.024, 320.602 407.732 C 320.894 407.439, 320.684 406.923, 320.136 406.584 C 319.587 406.245, 318.917 406.325, 318.647 406.762 M 350.446 450.087 C 350.077 450.685, 350.275 451.675, 350.887 452.287 C 352.234 453.634, 352.372 455.348, 351.069 454.543 C 349.564 453.613, 348.656 456.065, 350.034 457.337 C 351.018 458.245, 351.164 458.127, 350.698 456.801 C 350.296 455.654, 350.531 455.266, 351.422 455.608 C 352.859 456.160, 354.359 453.390, 353.434 451.893 C 353.119 451.384, 352.366 451.274, 351.761 451.648 C 351.053 452.086, 350.888 451.735, 351.299 450.664 C 352.017 448.793, 351.473 448.426, 350.446 450.087 M 357.418 458.332 C 357.738 459.339, 358.007 461.139, 358.015 462.332 C 358.037 465.406, 359.537 467.391, 361.321 466.707 C 362.310 466.328, 362.648 465.369, 362.284 463.977 C 361.877 462.421, 361.504 462.185, 360.927 463.118 C 360.490 463.825, 360.399 464.876, 360.726 465.452 C 361.053 466.029, 360.937 466.151, 360.468 465.724 C 359.205 464.576, 358.856 461, 360.006 461 C 360.553 461, 361 460.475, 361 459.833 C 361 459.192, 360.707 458.960, 360.349 459.318 C 359.991 459.676, 359.054 459.188, 358.267 458.234 C 356.920 456.601, 356.871 456.606, 357.418 458.332" stroke="none" fill="#edebdb" fill-rule="evenodd"/></svg>